<?xml version="1.0" standalone="no"?>
<!DOCTYPE svg PUBLIC "-//W3C//DTD SVG 20010904//EN"
 "http://www.w3.org/TR/2001/REC-SVG-20010904/DTD/svg10.dtd">
<svg version="1.0" xmlns="http://www.w3.org/2000/svg"
 width="2000.000000pt" height="2000.000000pt" viewBox="0 0 2000.000000 2000.000000"
 preserveAspectRatio="xMidYMid meet">
<metadata>
Created by potrace 1.14, written by Peter Selinger 2001-2017
</metadata>
<g transform="translate(0.000000,2000.000000) scale(0.100000,-0.100000)"
fill="#000000" stroke="none">
<path d="M9913 15252 l-2683 -2 0 -1043 0 -1042 1843 -1 c1676 -1 1848 -2
1905 -17 99 -26 145 -65 193 -163 57 -118 70 -297 29 -405 -41 -111 -82 -159
-235 -282 -61 -48 -117 -93 -125 -100 -8 -7 -58 -46 -110 -87 -52 -41 -97 -77
-100 -80 -3 -3 -61 -50 -130 -105 -69 -55 -127 -102 -130 -105 -3 -3 -25 -21
-50 -39 -25 -19 -54 -43 -65 -53 -11 -9 -96 -79 -189 -154 -93 -76 -177 -145
-185 -153 -46 -46 -87 -111 -131 -204 -111 -236 -172 -433 -206 -667 -3 -25
-8 -56 -10 -70 -5 -33 -6 -329 -1 -355 3 -11 8 -42 11 -70 13 -90 19 -121 36
-185 7 -25 14 -52 15 -60 7 -31 63 -187 84 -235 75 -169 150 -291 335 -543 77
-106 150 -206 161 -222 19 -26 129 -177 430 -585 69 -93 131 -177 137 -185 7
-8 21 -28 31 -43 10 -16 25 -36 32 -45 12 -14 135 -179 250 -336 11 -15 30
-40 42 -54 13 -15 23 -30 23 -33 0 -3 8 -15 18 -27 9 -11 69 -91 132 -177 63
-86 144 -195 180 -243 36 -48 122 -164 191 -257 69 -94 201 -271 293 -395 92
-124 176 -236 186 -250 26 -34 153 -206 278 -375 57 -77 108 -147 115 -155 14
-18 213 -286 382 -515 64 -88 132 -179 149 -202 17 -23 40 -54 51 -69 45 -62
68 -84 113 -105 l47 -23 1270 1 c1245 1 1385 2 1385 10 0 4 -460 604 -470 613
-3 3 -25 32 -50 65 -24 33 -49 65 -55 72 -12 15 -9 11 -109 143 -44 58 -82
107 -86 110 -3 3 -32 41 -66 85 -33 44 -229 299 -435 566 -206 267 -384 499
-396 515 -18 24 -178 230 -278 359 -12 17 -140 183 -284 370 -144 187 -267
347 -274 355 -23 30 -105 135 -158 206 -30 39 -103 135 -164 213 -192 249
-502 651 -610 791 -57 74 -155 201 -217 282 -62 80 -162 211 -223 290 -60 79
-114 148 -120 154 -5 7 -18 22 -27 35 -9 13 -60 80 -113 148 -81 105 -94 126
-83 139 7 9 63 68 123 131 61 62 130 135 155 161 25 26 135 140 245 255 110
114 223 231 250 260 28 29 143 148 256 266 114 118 226 234 249 259 23 25 125
131 225 235 101 105 209 218 241 251 33 34 142 148 244 254 102 107 230 241
285 298 55 58 143 151 196 206 220 230 262 279 336 393 87 133 158 310 178
442 3 22 8 55 11 73 6 46 6 259 0 289 -3 13 -8 40 -11 59 -33 229 -136 483
-263 652 -199 266 -490 441 -832 499 -89 15 -31 15 -3667 11z"/>
<path d="M4566 11112 c2 -3663 4 -4287 18 -4407 2 -16 7 -57 10 -90 4 -33 9
-67 11 -75 3 -8 7 -31 9 -51 3 -19 16 -83 30 -142 116 -479 338 -850 691
-1155 151 -131 440 -292 630 -351 55 -18 115 -37 133 -42 18 -6 45 -13 60 -15
15 -3 61 -12 102 -20 119 -22 237 -28 530 -26 151 1 1466 2 2923 2 1809 1
2647 4 2647 11 0 15 -15 42 -88 154 -36 55 -85 132 -110 170 -52 81 -198 305
-385 592 -73 111 -144 221 -159 245 -36 57 -51 80 -61 92 -4 6 -31 47 -58 90
-28 44 -99 152 -157 240 -332 507 -302 466 -362 493 -31 14 -223 16 -1780 18
-1896 3 -1796 0 -1945 57 -225 86 -394 278 -446 506 -6 26 -13 56 -16 67 -7
30 -11 480 -17 2100 -15 3694 -25 5595 -29 5635 l-2 25 -1090 2 -1091 2 2
-4127z"/>
</g>
</svg>
