<svg width="21" height="20" viewBox="0 0 21 20" fill="none" xmlns="http://www.w3.org/2000/svg">
<path d="M12.1615 1.53846C12.1615 0.6875 11.474 0 10.623 0C9.77209 0 9.08459 0.6875 9.08459 1.53846V8.46154H2.16151C1.31055 8.46154 0.623047 9.14904 0.623047 10C0.623047 10.851 1.31055 11.5385 2.16151 11.5385H9.08459V18.4615C9.08459 19.3125 9.77209 20 10.623 20C11.474 20 12.1615 19.3125 12.1615 18.4615V11.5385H19.0846C19.9355 11.5385 20.623 10.851 20.623 10C20.623 9.14904 19.9355 8.46154 19.0846 8.46154H12.1615V1.53846Z" fill="black" fill-opacity="0.75"/>
</svg>
