<svg width="57" height="44" viewBox="0 0 57 44" fill="none" xmlns="http://www.w3.org/2000/svg">
<path d="M47.9793 4.13165C47.9637 4.10125 47.9379 4.07743 47.9065 4.06446C44.2757 2.3856 40.4442 1.18844 36.5078 0.502936C36.4721 0.496236 36.4351 0.50107 36.4022 0.516751C36.3694 0.532432 36.3422 0.558161 36.3247 0.59028C35.8029 1.54462 35.3293 2.52489 34.9056 3.52734C30.6624 2.8782 26.3463 2.8782 22.1031 3.52734C21.6766 2.52234 21.1954 1.54183 20.6617 0.59028C20.6434 0.558859 20.6161 0.533722 20.5834 0.518143C20.5507 0.502564 20.5142 0.497265 20.4784 0.502936C16.5416 1.187 12.7099 2.38425 9.07954 4.06456C9.04846 4.07783 9.02224 4.10051 9.00449 4.12944C1.74456 15.0559 -0.244206 25.7137 0.731416 36.2395C0.734161 36.2653 0.742025 36.2903 0.754541 36.3129C0.767058 36.3356 0.78397 36.3555 0.804274 36.3715C5.03166 39.526 9.76005 41.9338 14.7877 43.4923C14.8231 43.503 14.8609 43.5025 14.896 43.4909C14.9311 43.4793 14.9619 43.4572 14.9841 43.4274C16.064 41.9467 17.0208 40.3787 17.8448 38.7394C17.8561 38.717 17.8626 38.6923 17.8638 38.6671C17.865 38.6419 17.8608 38.6167 17.8517 38.5933C17.8425 38.5698 17.8285 38.5486 17.8106 38.5309C17.7927 38.5133 17.7713 38.4997 17.7478 38.4911C16.239 37.9092 14.7783 37.2079 13.3794 36.3935C13.354 36.3785 13.3326 36.3574 13.3172 36.332C13.3018 36.3067 13.2929 36.2779 13.2911 36.2483C13.2894 36.2186 13.2949 36.189 13.3072 36.162C13.3196 36.135 13.3383 36.1115 13.3617 36.0935C13.6553 35.8719 13.949 35.6413 14.2293 35.4085C14.2542 35.3878 14.2843 35.3746 14.3163 35.3702C14.3482 35.3659 14.3808 35.3706 14.4102 35.3839C23.5749 39.5992 33.497 39.5992 42.5532 35.3839C42.5827 35.3698 42.6156 35.3644 42.648 35.3683C42.6805 35.3723 42.7111 35.3854 42.7364 35.4063C43.0168 35.6391 43.3104 35.8719 43.6061 36.0935C43.6297 36.1113 43.6486 36.1347 43.6611 36.1615C43.6736 36.1884 43.6794 36.218 43.6779 36.2477C43.6763 36.2773 43.6676 36.3062 43.6524 36.3316C43.6372 36.357 43.616 36.3783 43.5907 36.3935C42.195 37.2147 40.733 37.9156 39.2202 38.4888C39.1967 38.4979 39.1754 38.5118 39.1576 38.5297C39.1398 38.5475 39.126 38.569 39.117 38.5927C39.108 38.6163 39.104 38.6416 39.1054 38.6669C39.1068 38.6922 39.1135 38.7169 39.125 38.7394C39.9628 40.3696 40.9182 41.9356 41.9835 43.4248C42.0051 43.4554 42.0357 43.4783 42.0709 43.4904C42.1062 43.5024 42.1443 43.503 42.1799 43.492C47.2166 41.9388 51.9532 39.5308 56.1859 36.3715C56.2065 36.3563 56.2237 36.3369 56.2362 36.3145C56.2488 36.2921 56.2565 36.2673 56.2588 36.2417C57.4268 24.0728 54.3033 13.5023 47.9793 4.13165ZM19.2135 29.8304C16.4542 29.8304 14.1807 27.2785 14.1807 24.1445C14.1807 21.0104 16.4101 18.4584 19.2135 18.4584C22.0387 18.4584 24.2903 21.0326 24.2462 24.1443C24.2462 27.2785 22.0166 29.8304 19.2135 29.8304ZM37.8212 29.8304C35.062 29.8304 32.7885 27.2785 32.7885 24.1445C32.7885 21.0104 35.0179 18.4584 37.8212 18.4584C40.6466 18.4584 42.898 21.0326 42.8539 24.1443C42.8539 27.2785 40.6466 29.8304 37.8212 29.8304Z" fill="#7586FF"/>
</svg>
