<svg width="35" height="27" viewBox="0 0 35 27" fill="none" xmlns="http://www.w3.org/2000/svg">
<path d="M29.434 2.67749C27.2332 1.66025 24.8799 0.920959 22.4196 0.5C22.1174 1.03965 21.7644 1.7655 21.521 2.34291C18.9057 1.95436 16.3144 1.95436 13.7471 2.34291C13.5038 1.7655 13.1428 1.03965 12.8379 0.5C10.375 0.920959 8.01897 1.66297 5.81809 2.68288C1.37889 9.3097 0.175497 15.7719 0.777194 22.1424C3.7215 24.3144 6.57489 25.6339 9.38013 26.4973C10.0728 25.5556 10.6905 24.5546 11.2226 23.4996C10.2091 23.1192 9.23839 22.6497 8.32117 22.1046C8.5645 21.9265 8.80253 21.7404 9.03249 21.5488C14.6269 24.1337 20.7054 24.1337 26.233 21.5488C26.4657 21.7404 26.7037 21.9265 26.9443 22.1046C26.0244 22.6523 25.051 23.1218 24.0375 23.5023C24.5697 24.5546 25.1847 25.5584 25.88 26.5C28.688 25.6366 31.544 24.3172 34.4883 22.1424C35.1943 14.7574 33.2823 8.35452 29.434 2.67749ZM11.9848 18.2246C10.3054 18.2246 8.92818 16.6758 8.92818 14.7898C8.92818 12.9037 10.276 11.3522 11.9848 11.3522C13.6937 11.3522 15.0709 12.901 15.0414 14.7898C15.0441 16.6758 13.6937 18.2246 11.9848 18.2246ZM23.2807 18.2246C21.6013 18.2246 20.2241 16.6758 20.2241 14.7898C20.2241 12.9037 21.5718 11.3522 23.2807 11.3522C24.9895 11.3522 26.3667 12.901 26.3373 14.7898C26.3373 16.6758 24.9895 18.2246 23.2807 18.2246Z" fill="white"/>
</svg>
