<svg width="55" height="61" viewBox="0 0 55 61" fill="none" xmlns="http://www.w3.org/2000/svg">
<path d="M46.5237 36.7304L49.4045 29.2719C49.8866 28.0209 48.9585 26.6865 47.5964 26.6865H40.5451C41.871 24.4347 42.6906 21.8493 42.6906 19.0613V19.0256C47.4156 18.0962 50.4049 16.7499 50.4049 15.2487C50.4049 13.6641 47.1143 12.2582 41.9554 11.3169C40.8464 7.40902 38.7009 3.47727 37.0616 1.45182C35.9165 0.0340065 33.9397 -0.406826 32.3004 0.403353L28.9737 2.04754C27.8888 2.58369 26.6112 2.58369 25.5263 2.04754L22.1996 0.403353C20.5603 -0.406826 18.5835 0.0340065 17.4384 1.45182C15.8112 3.47727 13.6536 7.40902 12.5446 11.3169C7.39777 12.2582 4.10714 13.6641 4.10714 15.2487C4.10714 16.7499 7.09643 18.0962 11.8214 19.0256V19.0613C11.8214 21.8493 12.6411 24.4347 13.967 26.6865H7.03616C5.65 26.6865 4.72187 28.0805 5.26429 29.3434L8.37411 36.5159C3.54063 39.292 0.25 44.4032 0.25 50.3247V55.6623C0.25 58.6052 2.67277 61 5.65 61H48.85C51.8272 61 54.25 58.6052 54.25 55.6623V50.3247C54.25 44.5581 51.1402 39.5541 46.5237 36.7304ZM21.4643 57.1874L16.45 34.3117L22.4286 38.1243L25.3214 42.8901L21.4643 57.1874ZM33.0357 57.1874L29.1786 42.8901L32.0714 38.1243L38.05 34.3117L33.0357 57.1874ZM38.0621 21.6229C37.592 23.0407 37.2183 24.5538 36.0732 25.6023C34.8558 26.7104 30.2875 28.2711 28.3589 22.6237C28.0214 21.6229 26.5027 21.6229 26.1531 22.6237C24.104 28.6047 19.4031 26.484 18.4388 25.6023C17.2937 24.5538 16.908 23.0407 16.45 21.6229C16.3536 21.325 15.6906 20.9438 15.6906 20.9319V19.6451C19.1018 20.074 23.0433 20.3361 27.2621 20.3361C31.4808 20.3361 35.4223 20.0859 38.8335 19.6451V20.9319C38.8214 20.9438 38.1585 21.3131 38.0621 21.6229Z" fill="#504F5C"/>
</svg>
