<svg width="21" height="21" viewBox="0 0 21 21" fill="none" xmlns="http://www.w3.org/2000/svg">
<path d="M20 9.91999L17.26 8.32999C19.9 6.07999 17.25 1.87999 14.08 3.30999L13.21 3.67999L13.1 2.71999C13 1.63999 12.44 0.869986 11.7 0.419986C10.06 -0.533014 7.56 0.119986 7.16 2.49999L4.41 0.919986C3.45 0.359986 2.23 0.689987 1.68 1.64999L0.68 3.37999C0.4 3.85999 0.57 4.46999 1.05 4.74999L8.84 9.24999L10.34 6.64999L12.07 7.64999L10.57 10.25L18.36 14.75C18.84 15 19.46 14.86 19.73 14.38L20.73 12.65C21.28 11.69 20.96 10.47 20 9.91999ZM10.37 3.99999C9.5 4.24999 8.8 3.31999 9.24 2.54999C9.5 2.06999 10.13 1.90999 10.61 2.17999C11.38 2.62999 11.23 3.78999 10.37 3.99999ZM15.56 6.99999C14.7 7.24999 14 6.31999 14.44 5.54999C14.71 5.06999 15.33 4.90999 15.8 5.17999C16.57 5.62999 16.42 6.78999 15.56 6.99999ZM18.87 15.88C19.28 15.88 19.67 15.74 20 15.5V19C20 20.11 19.11 21 18 21H2C0.9 21 0 20.11 0 19V9.99999H8.15L9 10.5V19H11V11.65L17.87 15.61C18.17 15.79 18.5 15.88 18.87 15.88Z" fill="url(#paint0_linear_1214_1676)"/>
<defs>
<linearGradient id="paint0_linear_1214_1676" x1="10.4993" y1="-0.0010376" x2="10.4993" y2="21" gradientUnits="userSpaceOnUse">
<stop stop-color="#94E777"/>
<stop offset="1" stop-color="#CAFF87"/>
</linearGradient>
</defs>
</svg>
