<svg width="25" height="25" viewBox="0 0 25 25" fill="none" xmlns="http://www.w3.org/2000/svg">
<path d="M15.3018 7.23503L8.71578 13.821C8.52476 14.0055 8.3724 14.2262 8.26758 14.4702C8.16276 14.7142 8.10759 14.9767 8.10528 15.2422C8.10297 15.5078 8.15358 15.7711 8.25414 16.0169C8.3547 16.2627 8.50321 16.486 8.69099 16.6738C8.87878 16.8616 9.10208 17.0101 9.34787 17.1107C9.59367 17.2112 9.85702 17.2618 10.1226 17.2595C10.3881 17.2572 10.6506 17.202 10.8946 17.0972C11.1386 16.9924 11.3593 16.84 11.5438 16.649L17.9578 10.063C18.6864 9.30862 19.0896 8.29821 19.0805 7.24942C19.0714 6.20064 18.6507 5.19739 17.9091 4.45575C17.1674 3.71412 16.1642 3.29344 15.1154 3.28433C14.0666 3.27522 13.0562 3.67839 12.3018 4.40703L5.88678 10.992C4.76147 12.1173 4.12927 13.6436 4.12927 15.235C4.12927 16.8265 4.76147 18.3527 5.88678 19.478C7.01209 20.6033 8.53835 21.2355 10.1298 21.2355C11.7212 21.2355 13.2475 20.6033 14.3728 19.478L20.6298 13.235" stroke="#1F1E24" stroke-width="2" stroke-linecap="round" stroke-linejoin="round"/>
</svg>
