<svg width="96" height="26" viewBox="0 0 96 26" fill="none" xmlns="http://www.w3.org/2000/svg">
<g clip-path="url(#clip0_1214_1673)">
<path d="M5.11238 17.2209C7.44345 17.2209 9.33316 15.3312 9.33316 13.0001C9.33316 10.669 7.44345 8.77932 5.11238 8.77932C2.78131 8.77932 0.891602 10.669 0.891602 13.0001C0.891602 15.3312 2.78131 17.2209 5.11238 17.2209Z" fill="#3F3E49"/>
<path d="M23.4591 17.2209C25.7901 17.2209 27.6798 15.3312 27.6798 13.0001C27.6798 10.669 25.7901 8.77932 23.4591 8.77932C21.128 8.77932 19.2383 10.669 19.2383 13.0001C19.2383 15.3312 21.128 17.2209 23.4591 17.2209Z" fill="#3F3E49"/>
<path d="M58 11.92L55.26 10.33C57.9 8.07999 55.25 3.87999 52.08 5.30999L51.21 5.67999L51.1 4.71999C51 3.63999 50.44 2.86999 49.7 2.41999C48.06 1.46699 45.56 2.11999 45.16 4.49999L42.41 2.91999C41.45 2.35999 40.23 2.68999 39.68 3.64999L38.68 5.37999C38.4 5.85999 38.57 6.46999 39.05 6.74999L46.84 11.25L48.34 8.64999L50.07 9.64999L48.57 12.25L56.36 16.75C56.84 17 57.46 16.86 57.73 16.38L58.73 14.65C59.28 13.69 58.96 12.47 58 11.92ZM48.37 5.99999C47.5 6.24999 46.8 5.31999 47.24 4.54999C47.5 4.06999 48.13 3.90999 48.61 4.17999C49.38 4.62999 49.23 5.78999 48.37 5.99999ZM53.56 8.99999C52.7 9.24999 52 8.31999 52.44 7.54999C52.71 7.06999 53.33 6.90999 53.8 7.17999C54.57 7.62999 54.42 8.78999 53.56 8.99999ZM56.87 17.88C57.28 17.88 57.67 17.74 58 17.5V21C58 22.11 57.11 23 56 23H40C38.9 23 38 22.11 38 21V12H46.15L47 12.5V21H49V13.65L55.87 17.61C56.17 17.79 56.5 17.88 56.87 17.88Z" fill="url(#paint0_linear_1214_1673)"/>
<path d="M72.7579 17.2208C75.089 17.2208 76.9787 15.3311 76.9787 13C76.9787 10.6689 75.089 8.77922 72.7579 8.77922C70.4268 8.77922 68.5371 10.6689 68.5371 13C68.5371 15.3311 70.4268 17.2208 72.7579 17.2208Z" fill="#3F3E49"/>
<path d="M91.1046 17.2208C93.4356 17.2208 95.3253 15.3311 95.3253 13C95.3253 10.6689 93.4356 8.77922 91.1046 8.77922C88.7735 8.77922 86.8838 10.6689 86.8838 13C86.8838 15.3311 88.7735 17.2208 91.1046 17.2208Z" fill="#3F3E49"/>
</g>
<defs>
<linearGradient id="paint0_linear_1214_1673" x1="48.4993" y1="1.99896" x2="48.4993" y2="23" gradientUnits="userSpaceOnUse">
<stop stop-color="#94E777"/>
<stop offset="1" stop-color="#CAFF87"/>
</linearGradient>
<clipPath id="clip0_1214_1673">
<rect width="95" height="26" fill="white" transform="translate(0.5)"/>
</clipPath>
</defs>
</svg>
