<svg width="32" height="32" viewBox="0 0 32 32" fill="none" xmlns="http://www.w3.org/2000/svg">
<path fill-rule="evenodd" clip-rule="evenodd" d="M4.80005 7.9999C4.80005 7.57556 4.96862 7.16859 5.26868 6.86853C5.56874 6.56847 5.9757 6.3999 6.40005 6.3999H25.6C26.0244 6.3999 26.4314 6.56847 26.7314 6.86853C27.0315 7.16859 27.2001 7.57556 27.2001 7.9999C27.2001 8.42425 27.0315 8.83121 26.7314 9.13127C26.4314 9.43133 26.0244 9.5999 25.6 9.5999H6.40005C5.9757 9.5999 5.56874 9.43133 5.26868 9.13127C4.96862 8.83121 4.80005 8.42425 4.80005 7.9999ZM4.80005 15.9999C4.80005 15.5756 4.96862 15.1686 5.26868 14.8685C5.56874 14.5685 5.9757 14.3999 6.40005 14.3999H25.6C26.0244 14.3999 26.4314 14.5685 26.7314 14.8685C27.0315 15.1686 27.2001 15.5756 27.2001 15.9999C27.2001 16.4242 27.0315 16.8312 26.7314 17.1313C26.4314 17.4313 26.0244 17.5999 25.6 17.5999H6.40005C5.9757 17.5999 5.56874 17.4313 5.26868 17.1313C4.96862 16.8312 4.80005 16.4242 4.80005 15.9999ZM4.80005 23.9999C4.80005 23.5756 4.96862 23.1686 5.26868 22.8685C5.56874 22.5685 5.9757 22.3999 6.40005 22.3999H25.6C26.0244 22.3999 26.4314 22.5685 26.7314 22.8685C27.0315 23.1686 27.2001 23.5756 27.2001 23.9999C27.2001 24.4242 27.0315 24.8312 26.7314 25.1313C26.4314 25.4313 26.0244 25.5999 25.6 25.5999H6.40005C5.9757 25.5999 5.56874 25.4313 5.26868 25.1313C4.96862 24.8312 4.80005 24.4242 4.80005 23.9999Z" fill="#1BF1E7"/>
</svg>
