<svg width="20" height="18" viewBox="0 0 20 18" fill="none" xmlns="http://www.w3.org/2000/svg">
<path d="M4.15066 6.97425C4.45551 6.14706 4.95041 5.3692 5.64722 4.70518C8.12169 2.33366 12.1323 2.33366 14.6068 4.70518L15.2838 5.35782H13.2924C12.5916 5.35782 12.0254 5.90042 12.0254 6.57204C12.0254 7.24365 12.5916 7.78626 13.2924 7.78626H18.3403H18.3561C19.0569 7.78626 19.623 7.24365 19.623 6.57204V1.71517C19.623 1.04355 19.0569 0.500949 18.3561 0.500949C17.6553 0.500949 17.0892 1.04355 17.0892 1.71517V3.65792L16.3963 2.9901C12.9321 -0.330032 7.31798 -0.330032 3.85372 2.9901C2.88769 3.91594 2.19087 5.00494 1.76328 6.16983C1.52969 6.8035 1.8781 7.49409 2.53532 7.71796C3.19254 7.94183 3.91707 7.60792 4.15066 6.97804V6.97425ZM1.53365 10.264C1.3357 10.3209 1.14566 10.4234 0.991249 10.5752C0.832882 10.7269 0.725985 10.9091 0.670557 11.1064C0.658679 11.1519 0.646802 11.2012 0.638884 11.2506C0.627006 11.3151 0.623047 11.3796 0.623047 11.4441V16.2858C0.623047 16.9574 1.18921 17.5 1.88998 17.5C2.59075 17.5 3.15691 16.9574 3.15691 16.2858V14.3468L3.85372 15.0109C7.31798 18.3272 12.9321 18.3272 16.3924 15.0109C17.3584 14.085 18.0592 12.996 18.4868 11.8349C18.7204 11.2012 18.372 10.5107 17.7147 10.2868C17.0575 10.0629 16.333 10.3968 16.0994 11.0267C15.7945 11.8539 15.2996 12.6317 14.6028 13.2958C12.1284 15.6673 8.11773 15.6673 5.64326 13.2958L5.6393 13.292L4.96228 12.6431H6.9577C7.65847 12.6431 8.22463 12.1005 8.22463 11.4289C8.22463 10.7573 7.65847 10.2147 6.9577 10.2147H1.90581C1.84247 10.2147 1.77912 10.2185 1.71577 10.2261C1.65243 10.2337 1.59304 10.245 1.53365 10.264Z" fill="black" fill-opacity="0.75"/>
</svg>
