<svg width="20" height="20" viewBox="0 0 20 20" fill="none" xmlns="http://www.w3.org/2000/svg">
<path fill-rule="evenodd" clip-rule="evenodd" d="M7.70679 3.293C7.89426 3.48053 7.99957 3.73484 7.99957 4C7.99957 4.26516 7.89426 4.51947 7.70679 4.707L5.41379 7H10.9998C12.8563 7 14.6368 7.7375 15.9495 9.05025C17.2623 10.363 17.9998 12.1435 17.9998 14V16C17.9998 16.2652 17.8944 16.5196 17.7069 16.7071C17.5194 16.8946 17.265 17 16.9998 17C16.7346 17 16.4802 16.8946 16.2927 16.7071C16.1051 16.5196 15.9998 16.2652 15.9998 16V14C15.9998 12.6739 15.473 11.4021 14.5353 10.4645C13.5976 9.52678 12.3259 9 10.9998 9H5.41379L7.70679 11.293C7.8023 11.3852 7.87848 11.4956 7.93089 11.6176C7.9833 11.7396 8.01088 11.8708 8.01204 12.0036C8.01319 12.1364 7.98789 12.2681 7.93761 12.391C7.88733 12.5139 7.81307 12.6255 7.71918 12.7194C7.62529 12.8133 7.51364 12.8875 7.39074 12.9378C7.26784 12.9881 7.13616 13.0134 7.00339 13.0123C6.87061 13.0111 6.73939 12.9835 6.61738 12.9311C6.49538 12.8787 6.38503 12.8025 6.29279 12.707L2.29279 8.707C2.10532 8.51947 2 8.26516 2 8C2 7.73484 2.10532 7.48053 2.29279 7.293L6.29279 3.293C6.48031 3.10553 6.73462 3.00021 6.99979 3.00021C7.26495 3.00021 7.51926 3.10553 7.70679 3.293Z" fill="black"/>
</svg>
