<svg width="22" height="23" viewBox="0 0 22 23" fill="none" xmlns="http://www.w3.org/2000/svg">
<path d="M7.92381 0.833252C10.0253 0.833252 12.0408 1.66808 13.5268 3.15408C15.0128 4.64008 15.8476 6.65554 15.8476 8.75706C15.8476 10.7197 15.1284 12.5239 13.9459 13.9136L14.275 14.2428H15.2381L21.3333 20.338L19.5048 22.1666L13.4095 16.0713V15.1083L13.0804 14.7792C11.6907 15.9616 9.88648 16.6809 7.92381 16.6809C5.82228 16.6809 3.80683 15.846 2.32083 14.36C0.834827 12.874 0 10.8586 0 8.75706C0 6.65554 0.834827 4.64008 2.32083 3.15408C3.80683 1.66808 5.82228 0.833252 7.92381 0.833252ZM7.92381 3.27135C4.87619 3.27135 2.4381 5.70944 2.4381 8.75706C2.4381 11.8047 4.87619 14.2428 7.92381 14.2428C10.9714 14.2428 13.4095 11.8047 13.4095 8.75706C13.4095 5.70944 10.9714 3.27135 7.92381 3.27135Z" fill="white" fill-opacity="0.15"/>
</svg>
