<svg width="22" height="21" viewBox="0 0 22 21" fill="none" xmlns="http://www.w3.org/2000/svg">
<path d="M14.566 8.66426C17.2634 8.66426 19.4213 10.8303 19.4213 13.5379C19.4213 14.491 19.1515 15.3899 18.6768 16.1372L22 19.4946L20.5002 21L17.1339 17.6751C16.3894 18.1408 15.5047 18.4116 14.566 18.4116C11.8686 18.4116 9.71064 16.2455 9.71064 13.5379C9.71064 10.8303 11.8686 8.66426 14.566 8.66426ZM14.566 10.8303C13.8506 10.8303 13.1645 11.1156 12.6586 11.6234C12.1528 12.1311 11.8686 12.8198 11.8686 13.5379C11.8686 14.256 12.1528 14.9447 12.6586 15.4525C13.1645 15.9602 13.8506 16.2455 14.566 16.2455C15.2814 16.2455 15.9675 15.9602 16.4733 15.4525C16.9792 14.9447 17.2634 14.256 17.2634 13.5379C17.2634 12.8198 16.9792 12.1311 16.4733 11.6234C15.9675 11.1156 15.2814 10.8303 14.566 10.8303ZM8.63168 0C9.77631 0 10.8741 0.456419 11.6834 1.26885C12.4928 2.08128 12.9475 3.18318 12.9475 4.33213C12.9475 5.31769 12.613 6.22744 12.0628 6.9639C11.1349 7.31047 10.3041 7.86282 9.61354 8.55596L8.63168 8.66426C7.48705 8.66426 6.3893 8.20784 5.57992 7.39541C4.77054 6.58298 4.31584 5.48108 4.31584 4.33213C4.31584 3.18318 4.77054 2.08128 5.57992 1.26885C6.3893 0.456419 7.48705 0 8.63168 0ZM0 17.3285V15.1625C0 12.8664 3.57136 10.9819 8.0922 10.8303C7.74693 11.6751 7.55272 12.5848 7.55272 13.5379C7.55272 14.935 7.96273 16.2455 8.63168 17.3285H0Z" fill="url(#paint0_linear_724_2861)"/>
<defs>
<linearGradient id="paint0_linear_724_2861" x1="11" y1="0" x2="11" y2="21" gradientUnits="userSpaceOnUse">
<stop stop-color="#D9D9D9"/>
<stop offset="1" stop-color="#6E6C80"/>
</linearGradient>
</defs>
</svg>
