<svg width="17" height="17" viewBox="0 0 17 17" fill="none" xmlns="http://www.w3.org/2000/svg">
<path d="M10.4318 0.0644531C9.86968 0.0644531 9.41555 0.518579 9.41555 1.08068C9.41555 1.64278 9.86968 2.0969 10.4318 2.0969H13.0581L6.6654 8.49277C6.26843 8.88973 6.26843 9.5344 6.6654 9.93136C7.06236 10.3283 7.70703 10.3283 8.10399 9.93136L14.4967 3.5355V6.1618C14.4967 6.7239 14.9508 7.17803 15.5129 7.17803C16.075 7.17803 16.5291 6.7239 16.5291 6.1618V1.08068C16.5291 0.518579 16.075 0.0644531 15.5129 0.0644531H10.4318ZM2.81009 1.08068C1.40643 1.08068 0.269531 2.21758 0.269531 3.62124V13.7835C0.269531 15.1871 1.40643 16.324 2.81009 16.324H12.9723C14.376 16.324 15.5129 15.1871 15.5129 13.7835V10.2267C15.5129 9.6646 15.0588 9.21048 14.4967 9.21048C13.9346 9.21048 13.4805 9.6646 13.4805 10.2267V13.7835C13.4805 14.0629 13.2518 14.2916 12.9723 14.2916H2.81009C2.53063 14.2916 2.30198 14.0629 2.30198 13.7835V3.62124C2.30198 3.34178 2.53063 3.11313 2.81009 3.11313H6.36688C6.92898 3.11313 7.3831 2.659 7.3831 2.0969C7.3831 1.5348 6.92898 1.08068 6.36688 1.08068H2.81009Z" fill="black" fill-opacity="0.71"/>
</svg>
