<svg width="68" height="50" viewBox="0 0 68 50" fill="none" xmlns="http://www.w3.org/2000/svg">
<path d="M18.7532 49.7227C14.5883 49.4534 10.6308 48.0828 7.44599 45.8066C4.26115 43.5304 2.01177 40.465 1.01902 37.0481C0.0262741 33.6313 0.340928 30.0376 1.91805 26.7803C3.49518 23.523 6.25413 20.7686 9.80097 18.9103C10.5557 13.9549 13.4288 9.4009 17.8828 6.10053C22.3367 2.80015 28.0662 0.979614 33.9989 0.979614C39.9317 0.979614 45.6611 2.80015 50.1151 6.10053C54.569 9.4009 57.4422 13.9549 58.1969 18.9103C61.7437 20.7686 64.5027 23.523 66.0798 26.7803C67.6569 30.0376 67.9716 33.6313 66.9788 37.0481C65.9861 40.465 63.7367 43.5304 60.5518 45.8066C57.367 48.0828 53.4096 49.4534 49.2446 49.7227V49.7715H18.7532V49.7227ZM37.0481 29.2299H46.1955L33.9989 16.3914L21.8024 29.2299H30.9498V39.5007H37.0481V29.2299Z" fill="#94E777"/>
</svg>
