<svg width="31" height="20" viewBox="0 0 31 20" fill="none" xmlns="http://www.w3.org/2000/svg">
<path d="M15.5929 0.800293C16.782 0.800293 17.9224 1.2781 18.7632 2.12859C19.604 2.97908 20.0764 4.1326 20.0764 5.33537C20.0764 6.53815 19.604 7.69167 18.7632 8.54216C17.9224 9.39265 16.782 9.87046 15.5929 9.87046C14.4038 9.87046 13.2633 9.39265 12.4225 8.54216C11.5817 7.69167 11.1093 6.53815 11.1093 5.33537C11.1093 4.1326 11.5817 2.97908 12.4225 2.12859C13.2633 1.2781 14.4038 0.800293 15.5929 0.800293ZM6.62577 4.03964C7.34314 4.03964 8.00926 4.234 8.58572 4.58385C8.39357 6.43675 8.93159 8.2767 10.0333 9.71497C9.39276 10.9589 8.11175 11.8141 6.62577 11.8141C5.60653 11.8141 4.62904 11.4045 3.90833 10.6755C3.18762 9.94653 2.78273 8.9578 2.78273 7.92685C2.78273 6.8959 3.18762 5.90717 3.90833 5.17817C4.62904 4.44918 5.60653 4.03964 6.62577 4.03964ZM24.56 4.03964C25.5792 4.03964 26.5567 4.44918 27.2774 5.17817C27.9981 5.90717 28.403 6.8959 28.403 7.92685C28.403 8.9578 27.9981 9.94653 27.2774 10.6755C26.5567 11.4045 25.5792 11.8141 24.56 11.8141C23.074 11.8141 21.793 10.9589 21.1525 9.71497C22.2541 8.2767 22.7922 6.43675 22.6 4.58385C23.1765 4.234 23.8426 4.03964 24.56 4.03964ZM7.26628 17.3209C7.26628 14.6388 10.994 12.4619 15.5929 12.4619C20.1917 12.4619 23.9195 14.6388 23.9195 17.3209V19.5885H7.26628V17.3209ZM0.220703 19.5885V17.6449C0.220703 15.8438 2.64182 14.3278 5.92121 13.8872C5.16541 14.7683 4.70425 15.9863 4.70425 17.3209V19.5885H0.220703ZM30.965 19.5885H26.4815V17.3209C26.4815 15.9863 26.0203 14.7683 25.2645 13.8872C28.5439 14.3278 30.965 15.8438 30.965 17.6449V19.5885Z" fill="url(#paint0_linear_1134_1357)"/>
<defs>
<linearGradient id="paint0_linear_1134_1357" x1="15.5929" y1="0.800293" x2="15.5929" y2="19.5885" gradientUnits="userSpaceOnUse">
<stop stop-color="#D9D9D9"/>
<stop offset="1" stop-color="#6E6C80"/>
</linearGradient>
</defs>
</svg>
